<?xml version="1.0" encoding="UTF-8"?>
<svg version="1.1" xmlns="http://www.w3.org/2000/svg" width="336" height="420">
<path d="M0 0 C110.88 0 221.76 0 336 0 C336 138.6 336 277.2 336 420 C225.12 420 114.24 420 0 420 C0 281.4 0 142.8 0 0 Z " fill="#202124" transform="translate(0,0)"/>
<path d="M0 0 C50.49 0 100.98 0 153 0 C155.25394748 13.52368486 155.25394748 13.52368486 155.265625 18.69140625 C155.26820313 19.82126953 155.27078125 20.95113281 155.2734375 22.11523438 C155.26570312 23.25283203 155.25796875 24.39042969 155.25 25.5625 C155.25773438 26.70396484 155.26546875 27.84542969 155.2734375 29.02148438 C155.27085937 30.15005859 155.26828125 31.27863281 155.265625 32.44140625 C155.26336914 33.43857666 155.26111328 34.43574707 155.25878906 35.46313477 C154.90094156 40.35382985 153.87721292 45.17532895 153 50 C161.25 50 169.5 50 178 50 C179.65064457 59.35365257 180.30949267 68.26091872 180.25 77.75 C180.25773438 78.99910156 180.26546875 80.24820313 180.2734375 81.53515625 C180.27085937 82.75589844 180.26828125 83.97664063 180.265625 85.234375 C180.26336914 86.31944336 180.26111328 87.40451172 180.25878906 88.52246094 C180 92 180 92 178 101 C161.17 101 144.34 101 127 101 C125.45252738 95.58384583 124.71203162 91.63154625 124.76953125 86.1953125 C124.76998947 85.47189667 124.77044769 84.74848083 124.7709198 84.00314331 C124.77392241 82.4820592 124.78174843 80.96097761 124.79418945 79.43994141 C124.81239533 77.13823271 124.81469899 74.83692938 124.81445312 72.53515625 C124.81937193 71.04687159 124.82520183 69.55858961 124.83203125 68.0703125 C124.83314407 67.39501495 124.8342569 66.71971741 124.83540344 66.0239563 C124.88511701 60.90106501 125.42657344 56.16083905 126 51 C93 51 60 51 26 51 C26.66 54.63 27.32 58.26 28 62 C28.15183395 64.33747984 28.23935067 66.6810484 28.23046875 69.0234375 C28.22853516 70.22871094 28.22660156 71.43398437 28.22460938 72.67578125 C28.21236328 73.89652344 28.20011719 75.11726563 28.1875 76.375 C28.18685547 77.61894531 28.18621094 78.86289063 28.18554688 80.14453125 C28.16080094 85.25319236 28.09902342 89.99968598 27 95 C26.9114181 96.64397589 26.86979825 98.29114754 26.875 99.9375 C26.87242188 100.75089844 26.86984375 101.56429687 26.8671875 102.40234375 C26.94619936 105.03697037 26.94619936 105.03697037 27.49780273 107.73974609 C28.31294478 113.03163085 28.18595149 118.32065373 28.18530273 123.66577148 C28.1874751 125.66459254 28.20594797 127.66337425 28.22460938 129.66210938 C28.22654297 130.95310547 28.22847656 132.24410156 28.23046875 133.57421875 C28.23457764 134.73526123 28.23868652 135.89630371 28.24291992 137.0925293 C27.93112198 142.10793236 26.89891465 147.05596943 26 152 C67.91 152 109.82 152 153 152 C154.24360991 161.32707434 155.34352219 169.89945665 155.3125 179.1875 C155.32861328 180.16396484 155.34472656 181.14042969 155.36132812 182.14648438 C155.3664302 189.87613072 153.97228499 195.11086002 152 203 C160.58 203 169.16 203 178 203 C179.46933988 208.8773595 180.24997152 212.55254485 180.23046875 218.32421875 C180.23001053 218.99234085 180.22955231 219.66046295 180.2290802 220.34883118 C180.22608297 221.75299877 180.21827359 223.15716381 180.20581055 224.5612793 C180.18769094 226.66532753 180.18530064 228.76892905 180.18554688 230.87304688 C180.16468729 238.30397239 179.89137304 245.64850186 179.11450195 253.04614258 C178.98148653 256.47760021 179.49233876 259.60628462 180 263 C180.18486793 267.56794686 180.18582065 272.13446395 180.18530273 276.70556641 C180.18748735 278.8625061 180.20568102 281.01893181 180.22460938 283.17578125 C180.22754474 284.57291495 180.22952858 285.97005103 180.23046875 287.3671875 C180.23457764 288.61612793 180.23868652 289.86506836 180.24291992 291.15185547 C180 295 180 295 178 304 C169.75 304 161.5 304 153 304 C153.66 307.96 154.32 311.92 155 316 C155.15577133 318.14200271 155.26052542 320.28984679 155.265625 322.4375 C155.26820313 323.51773437 155.27078125 324.59796875 155.2734375 325.7109375 C155.26570312 326.79632813 155.25796875 327.88171875 155.25 329 C155.25773438 330.08539063 155.26546875 331.17078125 155.2734375 332.2890625 C155.2269363 351.7730637 155.2269363 351.7730637 152 355 C150.03838396 355.09666937 148.07323355 355.12187097 146.10923767 355.12025452 C144.18874855 355.12231651 144.18874855 355.12231651 142.22946167 355.12442017 C140.79742409 355.12088055 139.36538674 355.11724573 137.93334961 355.11352539 C136.43568422 355.11324353 134.9380187 355.11340124 133.44035339 355.1139679 C129.36201828 355.11425591 125.28371233 355.10835864 121.20538402 355.10139394 C116.94792372 355.09516095 112.69046282 355.09455665 108.43299866 355.09336853 C100.36526813 355.09025505 92.29755109 355.08204144 84.22982651 355.07201904 C75.04739221 355.06085842 65.86495728 355.05534758 56.68251789 355.05032361 C37.7883376 355.03985884 18.89416988 355.02225907 0 355 C-1.45926981 349.43722981 -2.2988997 344.59050662 -2.265625 338.84375 C-2.26753845 338.0971814 -2.2694519 337.35061279 -2.27142334 336.5814209 C-2.27277429 335.01505187 -2.26915471 333.44867123 -2.26074219 331.88232422 C-2.25002672 329.50592528 -2.26067448 327.13028211 -2.2734375 324.75390625 C-2.27211571 323.22135252 -2.26955292 321.68879926 -2.265625 320.15625 C-2.26967346 319.45705444 -2.27372192 318.75785889 -2.27789307 318.03747559 C-2.22940933 312.85172941 -1.31954833 309.27819332 0 304 C-8.58 304 -17.16 304 -26 304 C-29.1808146 287.89712608 -29.66076082 270.08597091 -26 254 C-25 253 -25 253 -22.94358826 252.87974548 C-21.58790489 252.8830764 -21.58790489 252.8830764 -20.20483398 252.88647461 C-19.18385117 252.88655014 -18.16286835 252.88662567 -17.11094666 252.88670349 C-16.0005452 252.89186478 -14.89014374 252.89702606 -13.74609375 252.90234375 C-12.05021873 252.90446617 -12.05021873 252.90446617 -10.32008362 252.90663147 C-6.69252935 252.91224981 -3.06503576 252.92480542 0.5625 252.9375 C3.01497307 252.94251264 5.4674471 252.94707595 7.91992188 252.95117188 C13.94663545 252.9622252 19.97331339 252.97898116 26 253 C27.27438665 258.76248942 28.25383712 264.22430226 28.265625 270.15234375 C28.26949219 272.05983398 28.26949219 272.05983398 28.2734375 274.00585938 C28.26570313 275.30330078 28.25796875 276.60074219 28.25 277.9375 C28.26160156 279.87786133 28.26160156 279.87786133 28.2734375 281.85742188 C28.27085938 283.13037109 28.26828125 284.40332031 28.265625 285.71484375 C28.26336914 286.85042725 28.26111328 287.98601074 28.25878906 289.15600586 C27.92260159 294.14965841 26.8953138 299.07577407 26 304 C59.33 304 92.66 304 127 304 C126.01 300.535 126.01 300.535 125 297 C124.75276184 294.72904968 124.75276184 294.72904968 124.75708008 292.7487793 C124.75400345 291.99497482 124.75092682 291.24117035 124.74775696 290.46452332 C124.75494247 289.67572281 124.76212799 288.8869223 124.76953125 288.07421875 C124.76998947 287.24541702 124.77044769 286.4166153 124.7709198 285.56269836 C124.77392346 283.82392939 124.78175267 282.08516264 124.79418945 280.34643555 C124.81256455 277.67812653 124.81469804 275.01016288 124.81445312 272.34179688 C124.81936467 270.64843449 124.82519139 268.95507445 124.83203125 267.26171875 C124.83314407 266.46279709 124.8342569 265.66387543 124.83540344 264.84074402 C124.88388498 259.23223004 124.88388498 259.23223004 126 257 C126.13357453 253.32670036 126.1671568 250.50147041 125 247 C123.18523481 234.74473383 121.18720263 214.62559473 127 203 C85.09 203 43.18 203 0 203 C-1.46715571 197.13137714 -2.25501845 193.38263178 -2.265625 187.60546875 C-2.26753845 186.9326033 -2.2694519 186.25973785 -2.27142334 185.56648254 C-2.27277333 184.15393699 -2.26916065 182.74137853 -2.26074219 181.32885742 C-2.25007609 179.20266853 -2.26065151 177.07733418 -2.2734375 174.95117188 C-2.27211471 173.56510235 -2.26954986 172.17903335 -2.265625 170.79296875 C-2.26336914 169.5608667 -2.26111328 168.32876465 -2.25878906 167.05932617 C-1.93584546 161.99368154 -0.90800966 156.99405312 0 152 C-8.58 152 -17.16 152 -26 152 C-29.00343517 136.79510947 -29.24257371 120.97581548 -26.3828125 105.73046875 C-25.66785961 100.63095786 -26.39500001 95.70035881 -27.51367188 90.70727539 C-28.39123123 85.82210688 -28.18458971 80.88790676 -28.1875 75.9375 C-28.19974609 74.86822266 -28.21199219 73.79894531 -28.22460938 72.69726562 C-28.22654297 71.63056641 -28.22847656 70.56386719 -28.23046875 69.46484375 C-28.23457764 68.512146 -28.23868652 67.55944824 -28.24291992 66.57788086 C-27.88754952 61.34375705 -26.86246567 56.17479402 -26 51 C-17.42 51 -8.84 51 0 51 C-0.66 47.04 -1.32 43.08 -2 39 C-2.16193566 36.4463052 -2.26075371 33.88694437 -2.265625 31.328125 C-2.26753845 30.67600037 -2.2694519 30.02387573 -2.27142334 29.35198975 C-2.27276324 27.99783941 -2.26922381 26.64367522 -2.26074219 25.28955078 C-2.24993844 23.23831138 -2.26074857 21.18793324 -2.2734375 19.13671875 C-2.27085938 17.81800781 -2.26828125 16.49929687 -2.265625 15.140625 C-2.26336914 13.96016602 -2.26111328 12.77970703 -2.25878906 11.56347656 C-2 8 -2 8 0 0 Z " fill="#FDFDFD" transform="translate(89,34)"/>
</svg>
