<?xml version="1.0" encoding="UTF-8"?>
<svg version="1.1" xmlns="http://www.w3.org/2000/svg" width="497" height="663">
<path d="M0 0 C164.01 0 328.02 0 497 0 C497 218.79 497 437.58 497 663 C332.99 663 168.98 663 0 663 C0 444.21 0 225.42 0 0 Z " fill="#202124" transform="translate(0,0)"/>
<path d="M0 0 C71.94 0 143.88 0 218 0 C220.10857596 12.65145574 221.19503798 24.43072304 221.1875 37.1875 C221.18741943 38.46165771 221.18733887 39.73581543 221.18725586 41.04858398 C221.1235862 51.5741836 220.56126587 61.75493653 218 72 C229.88 72 241.76 72 254 72 C256.39351752 80.37731131 257.1588694 87.79213792 257.203125 96.40625 C257.20882507 97.28921753 257.21452515 98.17218506 257.22039795 99.08190918 C257.22979621 100.94424258 257.2363612 102.80659222 257.24023438 104.66894531 C257.24987755 107.46450273 257.28092489 110.25930397 257.3125 113.0546875 C257.31903833 114.88020405 257.32428553 116.70572577 257.328125 118.53125 C257.3404718 119.34227173 257.3528186 120.15329346 257.36553955 120.9888916 C257.33428262 129.46518265 255.64010629 136.25276644 254 145 C229.91 145 205.82 145 181 145 C179.06069954 132.07133028 177.50928078 120.49024006 177.60888672 107.59765625 C177.62513931 105.10362272 177.60881869 102.6111764 177.58984375 100.1171875 C177.59182448 98.47655905 177.59566464 96.83593155 177.6015625 95.1953125 C177.59245346 94.11819504 177.59245346 94.11819504 177.5831604 93.01931763 C177.68221126 85.52805551 179.34211909 79.73677759 181 72 C133.48 72 85.96 72 37 72 C37.99 78.6 38.98 85.2 40 92 C40.2357627 97.32620906 40.38135109 102.49994995 40.3125 107.8125 C40.31572266 109.07513672 40.31894531 110.33777344 40.32226562 111.63867188 C40.27829759 119.4529908 39.6207019 126.95818253 38.45092773 134.66674805 C37.42681549 142.23697247 37.8493212 149.36630069 38.99609375 156.89453125 C40.11854373 164.83001308 40.33221166 172.67273826 40.3125 180.6875 C40.33666992 182.62399414 40.33666992 182.62399414 40.36132812 184.59960938 C40.36687484 195.88717214 38.72380671 205.50795523 37 217 C96.73 217 156.46 217 218 217 C221.37872323 235.01985721 221.37872323 235.01985721 221.36328125 241.62109375 C221.36377975 242.33499771 221.36427826 243.04890167 221.36479187 243.78443909 C221.36249502 245.2652572 221.35303594 246.74608267 221.33618164 248.22680664 C221.31254307 250.43347922 221.3156622 252.63893497 221.32226562 254.84570312 C221.29847536 266.69505787 220.32639315 278.36803426 218 290 C229.88 290 241.76 290 254 290 C257.45451856 304.96958042 257.45451856 304.96958042 257.36328125 313.21875 C257.36377975 314.12395386 257.36427826 315.02915771 257.36479187 315.96179199 C257.36247695 317.85394514 257.35290417 319.74610292 257.33618164 321.63818359 C257.31254341 324.49475353 257.31564735 327.35038775 257.32226562 330.20703125 C257.30762347 339.13608006 257.08327465 347.75282603 255.45092773 356.55200195 C254.54029512 361.49564744 254.90856106 365.75027041 255.99682617 370.59326172 C257.038428 375.71562867 257.30644829 380.60494949 257.30078125 385.8203125 C257.30506638 386.72264618 257.3093515 387.62497986 257.31376648 388.55465698 C257.31946872 390.45211963 257.32004065 392.34960412 257.31567383 394.24707031 C257.31253044 397.09740064 257.33596783 399.94667365 257.36132812 402.796875 C257.3636037 404.65885289 257.36430342 406.5208335 257.36328125 408.3828125 C257.372491 409.2094339 257.38170074 410.0360553 257.39118958 410.88772583 C257.327177 419.3908932 255.64243259 426.24035952 254 435 C242.12 435 230.24 435 218 435 C218.7425 438.7125 218.7425 438.7125 219.5 442.5 C221.06002293 451.59435591 221.33871962 460.66967797 221.375 469.875 C221.39530273 471.78635742 221.39530273 471.78635742 221.41601562 473.73632812 C221.36389744 485.24286578 219.67054717 495.30616982 218 507 C146.06 507 74.12 507 0 507 C-5.51466215 483.10313068 -5.10212096 460.09996061 -1 436 C-12.55 435.67 -24.1 435.34 -36 435 C-39.92477563 423.22567311 -40.34409547 411.20986967 -40.3125 398.875 C-40.32861328 397.64007813 -40.34472656 396.40515625 -40.36132812 395.1328125 C-40.36718896 383.64557039 -38.67179353 373.70255471 -37 362 C-12.91 362 11.18 362 36 362 C42.38227776 384.33797217 43.38278747 412.85163759 36 435 C83.85 435 131.7 435 181 435 C180.01 428.73 179.02 422.46 178 416 C177.77276264 412.66102644 177.59302656 409.53314562 177.63671875 406.21875 C177.63597099 405.03303406 177.63597099 405.03303406 177.63520813 403.82336426 C177.63749851 402.1940655 177.64691577 400.56475957 177.66381836 398.93554688 C177.68776904 396.47233067 177.68429606 394.01018123 177.67773438 391.546875 C177.69209431 383.9502306 177.8700418 376.67507093 179.54907227 369.22583008 C180.80515572 363.02566071 180.04357166 357.03311584 179.00390625 350.859375 C177.82042979 342.7408536 177.66238238 334.72725962 177.68432617 326.5324707 C177.687492 324.06872457 177.66390313 321.60617761 177.63867188 319.14257812 C177.63639804 317.52343897 177.63569578 315.90429668 177.63671875 314.28515625 C177.627509 313.57529068 177.61829926 312.86542511 177.60881042 312.13404846 C177.67697182 304.31565495 179.38756146 298.06219272 181 290 C121.27 290 61.54 290 0 290 C-2.23817088 281.0473165 -3.15501153 272.99995934 -3.16796875 263.828125 C-3.17129715 262.98384949 -3.17462555 262.13957397 -3.17805481 261.26971436 C-3.18308253 259.49491921 -3.18546443 257.72011476 -3.18530273 255.9453125 C-3.18748315 253.27066989 -3.20566697 250.59644462 -3.22460938 247.921875 C-3.29328312 226.87984935 -3.29328312 226.87984935 0 217 C-12.21 217 -24.42 217 -37 217 C-39.23734633 204.97426347 -40.3095356 193.40840902 -40.3125 181.1875 C-40.31765625 179.91447021 -40.3228125 178.64144043 -40.328125 177.32983398 C-40.27201847 169.55958053 -39.62610201 162.10064263 -38.45092773 154.43701172 C-37.39416643 146.38228206 -37.66074213 138.54343649 -38.99609375 130.546875 C-40.14111442 122.78851425 -40.35005583 115.14288966 -40.3125 107.3125 C-40.31233887 106.62043457 -40.31217773 105.92836914 -40.31201172 105.21533203 C-40.2936926 93.86532667 -39.22957276 83.14786378 -37 72 C-24.79 72 -12.58 72 0 72 C-0.99 67.71 -1.98 63.42 -3 59 C-3.9017784 50.92569511 -4.19388588 42.93278324 -4.1875 34.8125 C-4.18669434 33.73258789 -4.18588867 32.65267578 -4.18505859 31.54003906 C-4.10442568 20.89965605 -3.98858323 9.97145808 0 0 Z " fill="#653298" transform="translate(146,84)"/>
</svg>
